<?xml version="1.0" encoding="UTF-8"?>
<svg xmlns="http://www.w3.org/2000/svg" viewBox="0 0 320 80" width="320" height="80">
  <!-- All black version -->

  <!-- Lines -->
  <line x1="52.5" y1="17.2" x2="39.0" y2="17.2" stroke="#0A0A0F" stroke-width="1.5" stroke-linecap="round" opacity="0.7"/>
  <line x1="52.5" y1="17.2" x2="52.5" y2="26.2" stroke="#0A0A0F" stroke-width="1.5" stroke-linecap="round" opacity="0.7"/>
  <line x1="52.5" y1="26.2" x2="52.5" y2="35.2" stroke="#0A0A0F" stroke-width="1.5" stroke-linecap="round" opacity="0.7"/>
  <line x1="52.5" y1="35.2" x2="52.5" y2="44.2" stroke="#0A0A0F" stroke-width="1.5" stroke-linecap="round" opacity="0.7"/>
  <line x1="52.5" y1="44.2" x2="43.5" y2="53.2" stroke="#0A0A0F" stroke-width="1.5" stroke-linecap="round" opacity="0.7"/>
  <line x1="43.5" y1="53.2" x2="28.0" y2="50.5" stroke="#0A0A0F" stroke-width="1.5" stroke-linecap="round" opacity="0.7"/>
  <line x1="28.0" y1="50.5" x2="23.5" y2="41.5" stroke="#0A0A0F" stroke-width="1.5" stroke-linecap="round" opacity="0.7"/>
  <line x1="39.0" y1="17.2" x2="23.5" y2="41.5" stroke="#0A0A0F" stroke-width="1" stroke-linecap="round" opacity="0.35"/>
  <line x1="52.5" y1="26.2" x2="28.0" y2="50.5" stroke="#0A0A0F" stroke-width="1" stroke-linecap="round" opacity="0.25"/>

  <!-- Nodes -->
  <circle cx="52.5" cy="17.2" r="3.5" fill="#0A0A0F"/>
  <circle cx="39.0" cy="17.2" r="3"   fill="#0A0A0F"/>
  <circle cx="52.5" cy="26.2" r="3"   fill="#0A0A0F"/>
  <circle cx="52.5" cy="35.2" r="3"   fill="#0A0A0F"/>
  <circle cx="52.5" cy="44.2" r="3.5" fill="#0A0A0F"/>
  <circle cx="43.5" cy="53.2" r="3"   fill="#0A0A0F"/>
  <circle cx="28.0" cy="50.5" r="3.5" fill="#0A0A0F"/>
  <circle cx="23.5" cy="41.5" r="3"   fill="#0A0A0F"/>

  <!-- Wordmark black -->
  <text x="76" y="42"
    font-family="'Space Grotesk', 'Helvetica Neue', Arial, sans-serif"
    font-size="28"
    font-weight="700"
    letter-spacing="-0.5"
    fill="#0A0A0F">Jadency</text>
  <text x="76" y="60"
    font-family="'Inter', 'Helvetica Neue', Arial, sans-serif"
    font-size="14"
    font-weight="400"
    letter-spacing="3"
    fill="#0A0A0F"
    opacity="0.65">SOCIAL</text>
</svg>
