<?xml version="1.0" encoding="UTF-8"?>
<svg xmlns="http://www.w3.org/2000/svg" viewBox="0 0 60 60" width="60" height="60">
  <!-- Icon only - cropped from logo_black.svg -->
  <!-- All colors changed to white for navbar/footer use -->

  <!-- Lines -->
  <line x1="52.5" y1="17.2" x2="39.0" y2="17.2" stroke="#FFFFFF" stroke-width="1.5" stroke-linecap="round" opacity="0.8"/>
  <line x1="52.5" y1="17.2" x2="52.5" y2="26.2" stroke="#FFFFFF" stroke-width="1.5" stroke-linecap="round" opacity="0.8"/>
  <line x1="52.5" y1="26.2" x2="52.5" y2="35.2" stroke="#FFFFFF" stroke-width="1.5" stroke-linecap="round" opacity="0.8"/>
  <line x1="52.5" y1="35.2" x2="52.5" y2="44.2" stroke="#FFFFFF" stroke-width="1.5" stroke-linecap="round" opacity="0.8"/>
  <line x1="52.5" y1="44.2" x2="43.5" y2="53.2" stroke="#FFFFFF" stroke-width="1.5" stroke-linecap="round" opacity="0.8"/>
  <line x1="43.5" y1="53.2" x2="28.0" y2="50.5" stroke="#FFFFFF" stroke-width="1.5" stroke-linecap="round" opacity="0.8"/>
  <line x1="28.0" y1="50.5" x2="23.5" y2="41.5" stroke="#FFFFFF" stroke-width="1.5" stroke-linecap="round" opacity="0.8"/>
  <line x1="39.0" y1="17.2" x2="23.5" y2="41.5" stroke="#AAAAAA" stroke-width="1" stroke-linecap="round" opacity="0.5"/>
  <line x1="52.5" y1="26.2" x2="28.0" y2="50.5" stroke="#AAAAAA" stroke-width="1" stroke-linecap="round" opacity="0.4"/>

  <!-- Nodes -->
  <circle cx="52.5" cy="17.2" r="3.5" fill="#FFFFFF"/>
  <circle cx="39.0" cy="17.2" r="3"   fill="#AAAAAA"/>
  <circle cx="52.5" cy="26.2" r="3"   fill="#FFFFFF"/>
  <circle cx="52.5" cy="35.2" r="3"   fill="#FFFFFF"/>
  <circle cx="52.5" cy="44.2" r="3.5" fill="#FFFFFF"/>
  <circle cx="43.5" cy="53.2" r="3"   fill="#FFFFFF"/>
  <circle cx="28.0" cy="50.5" r="3.5" fill="#AAAAAA"/>
  <circle cx="23.5" cy="41.5" r="3"   fill="#FFFFFF"/>
</svg>
